<?xml version="1.0" encoding="utf-8"?>
<!-- Generator: Adobe Illustrator 14.0.0, SVG Export Plug-In . SVG Version: 6.00 Build 43363)  -->
<!DOCTYPE svg PUBLIC "-//W3C//DTD SVG 1.1//EN" "http://www.w3.org/Graphics/SVG/1.1/DTD/svg11.dtd">
<svg version="1.1" id="Calque_1" xmlns="http://www.w3.org/2000/svg" xmlns:xlink="http://www.w3.org/1999/xlink" x="0px" y="0px"
	 width="758.963px" height="1013.949px" viewBox="0 0 758.963 1013.949" enable-background="new 0 0 758.963 1013.949"
	 xml:space="preserve">
<title>Plan de travail 1</title>
<g>
	<path fill="#78216B" d="M24.256,127.207c58.646-15.314,117.306-30.533,175.906-46.034c8.523-2.26,12.614-1.936,13.797,8.945
		c1.703,15.832,5.889,31.436,9.616,46.973c3.361,14.17,10.194,18.029,24.564,14.533c17.425-4.262,34.869-8.527,52.183-13.239
		c17.548-4.78,20.336-9.775,15.816-27.159c-4.238-16.432-8.107-32.994-13.493-49.03c-2.212-6.583,0.035-7.337,4.892-8.585
		c56.37-14.561,112.688-29.149,168.982-43.887c4.726-1.24,8.267-1.367,11.038,3.568c14.059,25.33,28.32,50.563,42.849,76.435
		c-34.354,1.653-64.896,12.962-95.944,21.601c-15.264,4.25-18.873,14.806-12.998,29.466c6.324,15.738,12.509,31.559,19.446,47.041
		c5.446,12.163,1.934,19.841-10.345,23.432c-14.409,4.213-28.962,8.046-43.607,11.419c-12.163,2.838-20.647-1.321-24.438-14.15
		c-4.533-15.333-9.753-30.449-14.771-45.664c-5.925-17.957-15.854-24.688-33.947-20.552c-24.565,5.591-48.994,12.032-73.133,19.21
		c-18.104,5.396-23.165,15.695-19.389,34.506c3.053,15.204,6.155,30.421,9.06,45.646c2.928,15.382-0.561,21.375-15.792,25.861
		c-13.479,3.959-27.056,7.728-40.771,10.72c-14.507,3.133-19.739-0.817-21.666-15.241c-2.155-16.345-3.903-32.729-6.008-49.102
		c-2.352-18.438-10.868-25.321-28.729-20.504c-29.813,8.083-61.084,11.546-88.774,26.77c-1.135,0.631-2.875,0.195-4.313,0.259
		v-93.23h-0.029v-0.004h-0.003V127.207z"/>
	<path fill="#78216B" d="M452.388,527.67c10.573-18.822,7.401-36.502,1.617-54.521c-10.834-33.73-21.173-67.594-31.492-101.41
		c-4.89-16.018-0.718-23.651,15.564-28.04c20.14-5.43,40.494-10.016,60.645-15.373c29.152-7.791,37.583-25.313,25.479-52.287
		c-8.722-19.476-17.728-38.824-26.429-58.324c-6.351-14.252-3.711-19.963,11.559-24.499c11.161-3.292,22.475-6.024,33.734-8.962
		c11.207-2.91,22.792-4.885,30.892-16.73c20.223,35.373,39.459,68.957,58.65,102.618c32.692,57.307,65.293,114.623,98.102,171.901
		c3.922,6.826,6.319,11.26-4.474,14.108c-89.573,23.59-179.033,47.608-268.52,71.519C456.843,527.926,455.876,527.67,452.388,527.67
		"/>
	<path fill="#78216B" d="M312.587,568.797c-58.124,15.391-112.897,29.975-167.687,44.483c-34.21,9.023-68.527,17.615-102.582,27.179
		c-10.229,2.934-12.349,0.127-12.386-9.617c-0.604-101.836-1.466-203.64-2.538-305.5c-0.082-8.766,0.867-12.684,11.668-11.964
		c15.605,1.032,30.187-6.341,45.229-9.81c18.624-4.299,23.377-1.229,25.125,18.065c1.935,21.249,3.642,42.496,5.186,63.745
		c1.816,24.822,18.401,37.646,42.818,31.651c24.468-6.011,48.631-13.248,72.966-19.856c21.729-5.947,27.85-2.206,31.522,20.229
		c5.29,32.52,10.72,65.043,14.948,97.771C279.784,537.696,287.966,556.161,312.587,568.797"/>
	<path fill="#78216B" d="M353.92,243.495c12.264,19.021,16.867,40.945,21.357,62.479c2.271,10.813-6.595,18.946-17.306,21.943
		c-22.31,6.28-44.649,12.585-67.286,17.486c-17.961,3.889-27.087-2.878-30.646-21.303c-3.487-17.888-10.374-35.313-8.221-54.046
		c-1.766-10.51,3.664-16.713,12.813-19.937c22.919-8.057,46.604-13.371,70.396-18.029
		C344.193,230.269,351.26,233.675,353.92,243.495"/>
	<path fill="#CECECE" d="M353.92,243.495c-8.943-5.24-18.124-5.376-28.036-2.58c-16.344,4.622-32.87,8.591-49.374,12.6
		c-10.32,2.521-18.979,7.255-24.694,16.521c-16.263-21.097-16.804-46.832-19.827-71.465c-1.318-10.688,8.154-17.609,17.734-20.422
		c21.775-6.425,43.831-11.968,65.936-17.181c9.171-2.179,19.5,0.631,22.669,9.026C347.242,193.535,361.08,216.427,353.92,243.495"/>
</g>
<g>
	<polygon fill="#69B332" points="504.117,735.334 527.334,721.933 496.075,667.779 465.111,667.779 	"/>
	<polygon fill="#00B2DB" points="544.166,721.933 567.389,735.334 606.405,667.779 575.447,667.779 	"/>
	<path fill="#0B682F" d="M521.997,712.692c-5.944-10.201-15.923-15.463-22.313-11.762c-6.371,3.7-6.771,14.945-0.9,25.163l0,0
		l23.997,41.569l23.216-13.405L521.997,712.692L521.997,712.692z"/>
	<path fill="#065879" d="M572.723,726.093c5.867-10.241,5.438-21.509-0.966-25.203c-6.395-3.667-16.336,1.604-22.248,11.795l0,0
		l-23.999,41.579l23.217,13.396L572.723,726.093L572.723,726.093z"/>
	<path fill="#78216B" d="M161.356,737.865v79.016c-10.396,5.104-20.143,8.82-29.219,11.131c-9.087,2.313-18.987,3.474-29.721,3.474
		c-17.997,0-32.691-3.561-44.083-10.655c-11.394-7.077-19.729-16.788-25.016-29.097c-5.278-12.302-7.919-26.7-7.919-43.217
		c0-19.315,3.502-35.244,10.525-47.793c7.008-12.552,16.382-21.71,28.104-27.494c11.722-5.777,24.843-8.665,39.375-8.665
		c20.307,0,38.301,4.955,53.985,14.855l-11.915,20.804c-12.412-7.917-25.816-11.875-40.214-11.875
		c-17.381,0-30.161,5.197-38.356,15.596c-8.192,10.401-12.285,24.853-12.285,43.333c0,19.649,3.851,34.548,11.552,44.706
		c7.698,10.151,20.163,15.235,37.392,15.235c10.101,0,19.955-1.737,29.561-5.204v-40.876H94.985l3.224-23.271L161.356,737.865
		L161.356,737.865z"/>
	<path fill="#78216B" d="M316.618,826.511v1.75H284.67l-43.326-60.688h-19.309v60.688h-28.232V667.779h52.993
		c13.212,0,24.307,2.063,33.304,6.188c9.021,4.127,15.756,9.818,20.31,17.089c4.541,7.268,6.808,15.682,6.808,25.257
		c0,11.388-3.097,21.336-9.288,29.837c-6.188,8.509-15.242,14.489-27.117,17.964L316.618,826.511z M222.027,745.286h21.29
		c11.234,0,19.816-2.351,25.75-7.055c5.955-4.71,8.911-11.682,8.911-20.927c0-8.584-2.67-15.111-8.038-19.565
		c-5.371-4.448-13.175-6.681-23.414-6.681H222.02L222.027,745.286L222.027,745.286z"/>
	<polygon fill="#78216B" points="368.135,804.721 444.658,804.721 444.658,828.261 339.907,828.261 339.907,667.779 
		443.408,667.779 443.408,691.062 368.135,691.062 368.135,735.131 433.51,735.131 430.297,757.916 368.135,757.916 	"/>
	<path fill="#78216B" d="M639.852,820.861c-11.198-6.855-19.476-16.477-24.74-28.858c-5.291-12.382-7.93-26.904-7.93-43.593
		c0-19.809,3.413-35.982,10.284-48.53c6.844-12.543,15.872-21.623,27.107-27.241c11.228-5.604,23.687-8.417,37.402-8.417
		c10.064,0,19.346,1.247,27.854,3.72c8.491,2.475,16.802,6.103,24.887,10.896l-11.458,21.051
		c-12.919-7.763-26.287-11.645-40.066-11.645c-16.082,0-27.923,5.164-35.472,15.481c-7.555,10.318-11.318,24.721-11.318,43.206
		c0,18.989,4.154,33.725,12.446,44.214c8.298,10.483,20.246,15.725,35.854,15.725c7.969,0,15.006-1.039,21.144-3.094
		c6.136-2.073,12.448-4.987,18.923-8.791l11.194,20.3c-8.907,5.284-17.542,9.264-25.894,11.896
		c-8.324,2.636-17.435,3.964-27.367,3.964C665.366,831.142,651.088,827.701,639.852,820.861"/>
	<path fill="#A71924" d="M550.094,757.851c0-11.762-6.494-21.293-14.512-21.293c-8.011,0-14.506,9.531-14.506,21.293l0,0v58.035
		h29.018V757.851L550.094,757.851z"/>
	<path fill="#E95D0C" d="M550.094,802.261c0-11.765-6.494-21.296-14.512-21.296c-8.011,0-14.506,9.531-14.506,21.296v26h29.018
		V802.261z"/>
</g>
<g>
	<path fill="#78216B" d="M48.953,914.979h20.05v4.938H43.161v-40.894h25.547v4.909H48.953v12.759h17.285l-0.617,4.792H48.953
		V914.979z"/>
	<path fill="#78216B" d="M77.351,919.917v-43.332l5.409-0.618v44.098L77.351,919.917z"/>
	<path fill="#78216B" d="M114.951,907.04H95.695c-0.174,2.512,0.662,4.987,2.322,6.88c1.589,1.48,3.71,2.256,5.88,2.146
		c1.486,0.034,2.968-0.185,4.38-0.646c1.443-0.509,2.832-1.157,4.146-1.94l2.058,3.822c-3.229,2.208-7.053,3.387-10.965,3.381
		c-3.537,0.178-7.004-1.024-9.672-3.353c-2.649-2.903-3.961-6.784-3.616-10.7c-0.038-2.605,0.474-5.189,1.499-7.584
		c0.949-2.216,2.521-4.104,4.527-5.439c4.125-2.519,9.255-2.74,13.582-0.588c1.688,0.959,3.051,2.403,3.909,4.146
		c0.904,1.826,1.357,3.843,1.322,5.881L114.951,907.04z M98.4,897.693c-1.35,1.498-2.202,3.377-2.44,5.38h13.76v-0.265
		c0.148-1.905-0.43-3.796-1.617-5.292c-1.198-1.229-2.873-1.873-4.586-1.764C101.612,895.646,99.754,896.351,98.4,897.693z"/>
	<path fill="#78216B" d="M123.829,917.36c-2.598-2.883-3.877-6.718-3.526-10.583c-0.116-3.021,0.585-6.017,2.027-8.673
		c1.203-2.149,3.014-3.898,5.203-5.026c2.114-1.032,4.438-1.565,6.791-1.559c3.091,0.056,6.12,0.874,8.819,2.381l-2.028,4.175
		c-1.227-0.612-2.506-1.114-3.821-1.499c-1.079-0.312-2.198-0.46-3.321-0.44c-2.337-0.104-4.562,1.01-5.88,2.939
		c-1.514,2.327-2.244,5.077-2.087,7.85c-0.241,2.547,0.518,5.088,2.115,7.085c1.527,1.466,3.589,2.242,5.703,2.146
		c1.324,0.017,2.642-0.213,3.881-0.677c1.321-0.514,2.601-1.133,3.822-1.852l2.146,3.82c-1.511,0.993-3.127,1.813-4.821,2.44
		c-1.773,0.631-3.646,0.938-5.526,0.911C129.831,920.944,126.42,919.708,123.829,917.36z"/>
	<path fill="#78216B" d="M167.25,918.889c-2.129,1.158-4.514,1.765-6.938,1.764c-2.285,0.127-4.524-0.68-6.203-2.233
		c-1.627-1.84-2.442-4.256-2.264-6.703v-15.141h-5.558v-4.292h5.558v-6.262l5.438-0.882v7.144h9.319l-0.588,4.292h-8.819v14.229
		c0,3.557,1.293,5.32,3.909,5.32c0.743,0.001,1.483-0.088,2.205-0.265c0.799-0.201,1.576-0.477,2.322-0.823L167.25,918.889z"/>
	<path fill="#78216B" d="M188.886,891.637c0.634,0.093,1.262,0.221,1.882,0.382l-1,5.615c-1.252-0.472-2.573-0.729-3.909-0.766
		c-1.298-0.013-2.579,0.29-3.734,0.883c-1.358,0.814-2.483,1.971-3.263,3.352v18.814h-5.438v-27.724l5.438-0.558v3.969
		c0.98-1.24,2.227-2.245,3.646-2.94c1.369-0.679,2.88-1.03,4.408-1.027C187.573,891.588,188.231,891.588,188.886,891.637z"/>
	<path fill="#78216B" d="M199.352,918.74c-1.956-1.269-3.491-3.09-4.409-5.231c-0.998-2.371-1.489-4.926-1.441-7.497
		c-0.115-2.881,0.533-5.741,1.883-8.29c1.166-2.075,2.956-3.73,5.114-4.733c2.309-1.007,4.804-1.508,7.32-1.47
		c2.593-0.089,5.155,0.575,7.379,1.911c1.951,1.261,3.486,3.071,4.409,5.203c1.005,2.35,1.506,4.883,1.471,7.438
		c0.117,2.913-0.543,5.806-1.911,8.379c-1.167,2.075-2.956,3.73-5.114,4.732c-2.309,1.007-4.805,1.508-7.32,1.471
		C204.137,920.751,201.572,920.087,199.352,918.74z M215.374,905.983c0.135-2.596-0.556-5.168-1.969-7.35
		c-1.385-1.831-3.588-2.855-5.88-2.733c-2.43-0.218-4.809,0.784-6.351,2.675c-2.604,4.616-2.604,10.259,0,14.875
		c1.433,1.89,3.721,2.929,6.086,2.765C212.67,916.233,215.374,912.823,215.374,905.983z"/>
	<path fill="#78216B" d="M252.474,900.28v19.638h-5.409v-17.64c0.035-1.231-0.123-2.463-0.471-3.646
		c-0.274-0.796-0.843-1.458-1.587-1.853c-0.926-0.409-1.932-0.601-2.94-0.559c-1.358,0.011-2.711,0.188-4.027,0.528
		c-1.395,0.338-2.754,0.811-4.057,1.41v21.727h-5.468v-27.634l5.409-0.647v2.646c3.096-1.73,6.566-2.681,10.111-2.765
		C249.652,891.519,252.474,894.429,252.474,900.28z"/>
	<path fill="#78216B" d="M262.588,886.11c-0.597-0.336-1.094-0.823-1.44-1.411c-0.349-0.564-0.532-1.217-0.529-1.882
		c-0.01-0.692,0.173-1.375,0.529-1.97c0.348-0.588,0.845-1.074,1.44-1.411c0.564-0.349,1.217-0.531,1.881-0.528
		c0.684-0.006,1.354,0.178,1.939,0.528c0.583,0.354,1.076,0.836,1.44,1.411c0.354,0.595,0.539,1.276,0.529,1.97
		c0.003,0.665-0.182,1.316-0.529,1.882c-0.364,0.575-0.857,1.06-1.44,1.411c-0.583,0.361-1.254,0.554-1.939,0.56
		C263.802,886.658,263.151,886.466,262.588,886.11z M261.823,919.917v-27.635l5.409-0.646v28.28H261.823L261.823,919.917z"/>
	<path fill="#78216B" d="M278.227,917.36c-2.599-2.883-3.877-6.718-3.528-10.583c-0.123-3.018,0.567-6.014,1.999-8.673
		c1.204-2.149,3.015-3.898,5.204-5.026c2.114-1.032,4.438-1.565,6.791-1.559c3.091,0.056,6.12,0.874,8.819,2.381l-2.028,4.175
		c-1.219-0.606-2.487-1.108-3.793-1.499c-1.079-0.309-2.198-0.458-3.321-0.44c-2.337-0.104-4.561,1.01-5.88,2.939
		c-1.525,2.321-2.259,5.076-2.088,7.85c-0.241,2.547,0.52,5.088,2.117,7.085c1.525,1.469,3.588,2.245,5.703,2.146
		c1.324,0.011,2.639-0.219,3.881-0.677c1.316-0.524,2.594-1.145,3.821-1.852l2.146,3.82c-1.518,0.998-3.146,1.817-4.851,2.44
		c-1.764,0.63-3.625,0.938-5.498,0.911C284.227,920.949,280.815,919.714,278.227,917.36z"/>
	<path fill="#78216B" d="M306.478,919.74c-1.977-0.612-3.836-1.558-5.497-2.792l2.41-3.852c2.77,2.076,6.124,3.219,9.584,3.263
		c1.513,0.095,3.021-0.242,4.352-0.97c1.021-0.615,1.611-1.751,1.528-2.939c-0.021-1.034-0.521-2-1.353-2.616
		c-1.443-0.962-3.063-1.631-4.764-1.97l-1.97-0.5c-2.353-0.47-4.564-1.477-6.467-2.939c-1.378-1.276-2.13-3.091-2.06-4.969
		c-0.024-1.479,0.439-2.928,1.323-4.115c0.944-1.3,2.226-2.315,3.704-2.939c1.688-0.69,3.498-1.031,5.321-0.999
		c1.843-0.012,3.679,0.205,5.468,0.646c1.871,0.5,3.663,1.263,5.321,2.264l-2.205,3.851c-1.411-0.813-2.91-1.464-4.469-1.939
		c-1.321-0.36-2.688-0.538-4.058-0.528c-1.251-0.07-2.493,0.248-3.557,0.911c-0.802,0.542-1.286,1.443-1.294,2.41
		c-0.045,0.827,0.36,1.612,1.059,2.059c1.117,0.678,2.339,1.164,3.615,1.44l1.97,0.499c2.046,0.457,4.022,1.178,5.88,2.146
		c1.296,0.688,2.392,1.7,3.176,2.939c0.707,1.223,1.063,2.616,1.028,4.027c0.022,1.575-0.428,3.122-1.294,4.438
		c-0.968,1.324-2.294,2.344-3.821,2.94c-1.947,0.753-4.025,1.111-6.114,1.058C310.998,920.642,308.696,920.365,306.478,919.74z"/>
	<path fill="#78216B" d="M366.068,893.724c1.785,1.847,2.677,4.38,2.44,6.938v19.256h-4.939l-0.322-2.411
		c-2.908,2.115-6.43,3.221-10.024,3.146c-1.473,0.031-2.932-0.28-4.263-0.912c-1.217-0.549-2.241-1.45-2.939-2.587
		c-0.716-1.145-1.084-2.472-1.059-3.821c-0.085-2.229,0.817-4.38,2.47-5.88c1.867-1.656,4.122-2.818,6.556-3.381
		c2.95-0.677,5.969-1.021,8.995-1.027v-1.383c0.121-1.461-0.273-2.917-1.116-4.115c-1.034-0.971-2.44-1.442-3.852-1.294
		c-3.455,0.122-6.798,1.258-9.613,3.264l-2.381-3.792c3.695-2.654,8.12-4.104,12.67-4.146
		C361.332,891.34,363.966,892.107,366.068,893.724z M351.753,915.242c0.854,0.604,1.895,0.896,2.938,0.823
		c2.976-0.042,5.878-0.918,8.379-2.528v-6.556c-3.018,0.047-6.003,0.624-8.818,1.705c-2.265,0.939-3.382,2.322-3.382,4.086
		C350.76,913.69,351.087,914.604,351.753,915.242L351.753,915.242z"/>
	<path fill="#78216B" d="M401.816,900.28v19.638h-5.438v-17.64c0.049-1.232-0.109-2.465-0.472-3.646
		c-0.271-0.788-0.827-1.448-1.558-1.853c-0.925-0.407-1.931-0.599-2.94-0.559c-1.367,0.013-2.729,0.189-4.057,0.528
		c-1.384,0.342-2.731,0.813-4.027,1.41v21.727h-5.438v-27.634l5.438-0.647v2.646c3.087-1.729,6.549-2.677,10.084-2.765
		C398.995,891.519,401.816,894.429,401.816,900.28z"/>
	<path fill="#78216B" d="M434.625,875.879v44.097h-4.938l-0.234-2.028c-1.461,0.851-3.009,1.54-4.615,2.059
		c-1.408,0.447-2.874,0.686-4.352,0.706c-2.206,0.063-4.383-0.52-6.262-1.677c-1.767-1.164-3.14-2.834-3.939-4.792
		c-0.941-2.333-1.401-4.833-1.353-7.35c-0.078-2.868,0.569-5.709,1.882-8.261c1.133-2.212,2.892-4.042,5.057-5.263
		c2.242-1.224,4.766-1.842,7.319-1.794c1.986,0.032,3.961,0.31,5.88,0.823v-15.815L434.625,875.879z M416.633,913.714
		c1.337,1.563,3.327,2.41,5.38,2.293c2.535-0.037,5.014-0.758,7.173-2.087v-17.168c-1.789-0.609-3.665-0.929-5.556-0.941
		c-1.599-0.027-3.173,0.379-4.558,1.176c-1.401,0.854-2.51,2.115-3.175,3.616c-0.82,1.932-1.213,4.019-1.146,6.115
		C414.551,909.198,415.216,911.67,416.633,913.714z"/>
	<path fill="#78216B" d="M466.991,918.066c-2.82-1.71-5.024-4.273-6.291-7.32c-1.427-3.548-2.115-7.349-2.027-11.172
		c-0.172-4.222,0.728-8.419,2.616-12.199c1.524-2.944,3.901-5.361,6.819-6.938c2.878-1.46,6.063-2.206,9.29-2.175
		c4.707-0.075,9.335,1.223,13.317,3.732l-2.528,4.409c-3.165-1.967-6.827-2.986-10.554-2.938c-3.739-0.278-7.37,1.333-9.672,4.292
		c-2.274,3.482-3.367,7.605-3.116,11.759c-0.24,4.246,0.905,8.455,3.263,11.995c2.316,2.946,5.93,4.572,9.672,4.351
		c1.991,0.026,3.975-0.251,5.88-0.823c1.812-0.581,3.548-1.369,5.175-2.352l2.353,4.232c-2.059,1.224-4.247,2.209-6.526,2.939
		c-2.286,0.693-4.666,1.031-7.056,0.999C473.875,920.948,470.193,919.982,466.991,918.066z"/>
	<path fill="#78216B" d="M500.858,918.74c-1.957-1.269-3.491-3.09-4.41-5.231c-1.008-2.369-1.509-4.923-1.47-7.497
		c-0.106-2.884,0.552-5.744,1.911-8.29c1.166-2.075,2.955-3.73,5.115-4.733c2.307-1.007,4.803-1.508,7.318-1.47
		c2.594-0.089,5.155,0.575,7.38,1.911c1.951,1.261,3.485,3.071,4.409,5.203c0.995,2.352,1.485,4.885,1.44,7.438
		c0.127,2.91-0.522,5.802-1.882,8.379c-1.166,2.075-2.956,3.73-5.115,4.732c-2.307,1.007-4.803,1.508-7.319,1.471
		C505.642,920.755,503.077,920.09,500.858,918.74z M516.88,906.012c0.134-2.597-0.557-5.168-1.971-7.351
		c-1.388-1.826-3.588-2.851-5.88-2.732c-2.429-0.218-4.808,0.785-6.35,2.675c-1.397,2.208-2.066,4.8-1.911,7.408
		c-0.132,2.637,0.567,5.249,1.999,7.467c1.427,1.88,3.701,2.918,6.058,2.764c5.39,0,8.073-3.42,8.055-10.26V906.012L516.88,906.012z
		"/>
	<path fill="#78216B" d="M568.004,893.547c1.576,1.804,2.351,4.17,2.146,6.556v19.814h-5.438v-17.64
		c0.043-1.229-0.106-2.46-0.44-3.646c-0.229-0.762-0.718-1.416-1.382-1.853c-0.817-0.416-1.73-0.608-2.646-0.559
		c-1.302,0.01-2.596,0.188-3.852,0.528c-1.31,0.337-2.581,0.811-3.792,1.41c0.032,0.638,0.032,1.274,0,1.911v19.814h-5.292v-17.64
		c0.035-1.229-0.104-2.455-0.411-3.646c-0.207-0.763-0.688-1.423-1.353-1.853c-0.827-0.419-1.75-0.61-2.677-0.559
		c-1.252,0.011-2.498,0.188-3.703,0.528c-1.277,0.354-2.525,0.806-3.733,1.353v21.784h-5.409V892.22l5.409-0.647v2.646
		c2.856-1.737,6.123-2.69,9.467-2.764c2.588-0.266,5.11,0.923,6.556,3.087c1.627-0.928,3.353-1.666,5.146-2.205
		c1.826-0.575,3.729-0.872,5.646-0.882C564.361,891.368,566.432,892.118,568.004,893.547z"/>
	<path fill="#78216B" d="M600.105,893.401c1.741,1.274,3.07,3.033,3.821,5.058c0.844,2.192,1.263,4.527,1.234,6.879
		c0.066,2.866-0.579,5.705-1.882,8.261c-1.142,2.206-2.896,4.034-5.057,5.262c-2.242,1.225-4.766,1.842-7.319,1.794
		c-1.988,0.002-3.969-0.274-5.88-0.822v11.759h-5.438v-39.306l5.438-0.646v2.587c1.419-0.818,2.929-1.47,4.498-1.94
		c1.363-0.415,2.778-0.633,4.203-0.646C595.985,891.534,598.219,892.153,600.105,893.401z M595.019,915.214
		c1.396-0.866,2.493-2.14,3.146-3.646c0.85-1.924,1.251-4.014,1.176-6.115c0.201-2.479-0.464-4.951-1.881-6.996
		c-1.34-1.556-3.331-2.394-5.38-2.264c-2.538,0.02-5.021,0.741-7.175,2.087v17.14c1.78,0.605,3.646,0.924,5.527,0.94
		C592.038,916.394,593.621,915.997,595.019,915.214L595.019,915.214z"/>
	<path fill="#78216B" d="M636.001,891.637v28.28h-4.852l-0.322-2.088c-2.959,1.848-6.36,2.862-9.85,2.939
		c-2.29,0.117-4.536-0.663-6.262-2.176c-1.738-1.731-2.63-4.14-2.439-6.585V892.4l5.438-0.646v18.668
		c-0.055,1.129,0.116,2.258,0.5,3.32c0.292,0.784,0.885,1.419,1.646,1.766c0.999,0.398,2.071,0.58,3.146,0.527
		c2.673-0.181,5.268-0.976,7.584-2.321v-21.313L636.001,891.637z"/>
	<path fill="#78216B" d="M663.135,918.889c-2.129,1.158-4.515,1.765-6.938,1.764c-2.275,0.129-4.507-0.678-6.173-2.233
		c-1.648-1.827-2.478-4.25-2.293-6.703v-15.141h-5.469v-4.292h5.557v-6.262l5.438-0.882v7.144h9.318l-0.559,4.292h-8.819v14.229
		c0,3.557,1.293,5.32,3.91,5.32c0.742,0.001,1.482-0.088,2.204-0.265c0.799-0.201,1.576-0.477,2.323-0.823L663.135,918.889z"/>
	<path fill="#78216B" d="M691.211,907.04h-19.256c-0.176,2.512,0.661,4.987,2.321,6.88c1.592,1.476,3.711,2.249,5.88,2.146
		c1.486,0.034,2.969-0.185,4.381-0.646c1.441-0.509,2.831-1.157,4.146-1.94l2.087,3.822c-3.204,2.167-6.979,3.334-10.848,3.352
		c-3.546,0.183-7.024-1.02-9.701-3.352c-2.649-2.904-3.961-6.785-3.616-10.701c-0.038-2.604,0.475-5.189,1.499-7.585
		c0.969-2.201,2.538-4.086,4.527-5.438c4.125-2.519,9.255-2.739,13.582-0.588c1.681,0.943,3.041,2.366,3.909,4.087
		c0.904,1.825,1.357,3.843,1.322,5.879L691.211,907.04z M674.599,897.693c-1.338,1.505-2.188,3.381-2.438,5.38h13.758v-0.265
		c0.148-1.905-0.43-3.796-1.617-5.292c-1.19-1.221-2.854-1.864-4.557-1.764C677.833,895.641,675.962,896.346,674.599,897.693z"/>
	<path fill="#78216B" d="M714.228,891.637c0.634,0.09,1.262,0.218,1.881,0.382l-0.999,5.615c-1.252-0.472-2.572-0.729-3.91-0.766
		c-1.287-0.016-2.561,0.287-3.703,0.883c-1.37,0.813-2.506,1.968-3.292,3.352v18.814h-5.439v-27.724l5.439-0.558v3.969
		c0.985-1.234,2.229-2.237,3.645-2.94c1.383-0.675,2.9-1.026,4.439-1.027C712.933,891.589,713.583,891.589,714.228,891.637z"/>
	<path fill="#78216B" d="M126.386,983.74c-2.365-0.764-4.583-1.927-6.557-3.438l2.765-4.175c1.762,1.332,3.756,2.329,5.88,2.938
		c1.901,0.607,3.883,0.935,5.879,0.971c2.416,0.157,4.823-0.416,6.909-1.646c1.603-1.13,2.504-3.011,2.381-4.969
		c0.035-1.139-0.262-2.262-0.854-3.233c-0.719-0.979-1.668-1.768-2.764-2.293c-1.783-0.907-3.63-1.684-5.526-2.322l-1.088-0.354
		c-2.216-0.748-4.369-1.673-6.438-2.764c-1.588-0.862-2.956-2.079-3.998-3.558c-1.052-1.657-1.574-3.595-1.499-5.556
		c-0.051-2.12,0.623-4.194,1.911-5.88c1.33-1.65,3.09-2.901,5.086-3.616c2.161-0.813,4.452-1.22,6.761-1.205
		c2.413-0.009,4.815,0.308,7.146,0.939c2.345,0.687,4.566,1.737,6.585,3.116l-2.646,4.146c-1.663-1.084-3.462-1.944-5.35-2.559
		c-1.909-0.557-3.893-0.823-5.88-0.794c-1.939-0.07-3.859,0.419-5.527,1.411c-1.489,0.899-2.353,2.557-2.233,4.292
		c-0.009,0.935,0.246,1.852,0.734,2.646c0.668,0.897,1.532,1.633,2.528,2.146c1.614,0.85,3.297,1.566,5.026,2.146l1.059,0.353
		c2.312,0.773,4.569,1.696,6.762,2.764c1.713,0.889,3.201,2.154,4.352,3.704c1.272,1.845,1.912,4.053,1.822,6.291
		c0.074,2.292-0.563,4.553-1.822,6.469c-1.341,1.789-3.183,3.139-5.292,3.88c-2.585,0.959-5.327,1.418-8.085,1.353
		C131.691,984.953,128.985,984.548,126.386,983.74z"/>
	<path fill="#78216B" d="M159.018,981.653c-2.622-2.87-3.913-6.712-3.557-10.583c-0.116-3.021,0.585-6.017,2.027-8.672
		c1.195-2.148,3.008-3.891,5.203-4.998c2.107-1.057,4.434-1.601,6.791-1.588c3.091,0.057,6.12,0.874,8.819,2.382l-2.028,4.174
		c-1.232-0.606-2.51-1.118-3.822-1.527c-1.075-0.28-2.181-0.43-3.292-0.44c-2.333-0.086-4.549,1.021-5.88,2.939
		c-1.502,2.331-2.224,5.08-2.058,7.85c-0.247,2.542,0.501,5.082,2.087,7.084c1.572,1.51,3.705,2.288,5.88,2.146
		c1.323,0.011,2.639-0.22,3.881-0.677c1.31-0.521,2.577-1.14,3.792-1.853l2.146,3.852c-1.515,0.979-3.132,1.785-4.821,2.41
		c-1.772,0.633-3.646,0.941-5.526,0.911C165.12,985.265,161.645,984.035,159.018,981.653z"/>
	<path fill="#78216B" d="M185.624,950.403c-0.581-0.346-1.064-0.83-1.41-1.411c-0.354-0.554-0.548-1.193-0.56-1.852
		c-0.01-0.693,0.173-1.375,0.529-1.97c0.345-0.581,0.83-1.065,1.411-1.411c1.187-0.707,2.664-0.707,3.851,0
		c0.581,0.346,1.065,0.83,1.411,1.411c0.379,0.586,0.573,1.271,0.559,1.97c0.007,0.669-0.188,1.324-0.559,1.882
		c-0.346,0.58-0.83,1.065-1.411,1.411c-1.175,0.747-2.676,0.747-3.851,0L185.624,950.403z M184.888,984.21v-27.635l5.409-0.646
		v28.28H184.888L184.888,984.21z"/>
	<path fill="#78216B" d="M222.4,971.333h-19.226c-0.196,2.51,0.631,4.99,2.293,6.88c1.592,1.477,3.711,2.249,5.879,2.146
		c1.484,0.019,2.964-0.201,4.381-0.646c1.435-0.503,2.813-1.153,4.115-1.94l2.088,3.852c-3.215,2.142-6.986,3.296-10.85,3.321
		c-3.575,0.209-7.091-0.995-9.789-3.352c-2.673-2.893-3.996-6.779-3.646-10.701c-0.043-2.608,0.479-5.195,1.528-7.584
		c3.248-6.636,11.26-9.382,17.895-6.134c0.072,0.035,0.145,0.07,0.215,0.106c1.674,0.951,3.033,2.372,3.91,4.086
		c0.904,1.826,1.357,3.844,1.323,5.881L222.4,971.333z M205.908,961.986c-1.336,1.504-2.177,3.382-2.41,5.38h13.729v-0.265
		c0.144-1.899-0.422-3.784-1.588-5.291c-1.197-1.229-2.873-1.874-4.586-1.766C209.141,959.938,207.273,960.643,205.908,961.986
		L205.908,961.986z"/>
	<path fill="#78216B" d="M253.885,964.573v19.639h-5.409v-17.64c0.035-1.231-0.123-2.462-0.471-3.646
		c-0.274-0.796-0.844-1.458-1.588-1.853c-0.925-0.408-1.931-0.601-2.939-0.559c-1.358,0.012-2.711,0.188-4.027,0.529
		c-1.395,0.337-2.754,0.81-4.057,1.41v21.726h-5.468v-27.633l5.408-0.646v2.646c3.095-1.66,6.544-2.548,10.055-2.587
		C251.063,955.958,253.885,958.723,253.885,964.573z"/>
	<path fill="#78216B" d="M264.498,981.653c-2.598-2.882-3.877-6.718-3.526-10.583c-0.109-3.017,0.581-6.008,1.999-8.672
		c1.194-2.148,3.008-3.891,5.203-4.998c2.109-1.05,4.435-1.593,6.791-1.588c3.092,0.053,6.122,0.871,8.819,2.382l-2,4.174
		c-1.233-0.604-2.512-1.113-3.82-1.527c-1.087-0.28-2.201-0.43-3.322-0.44c-2.335-0.098-4.557,1.013-5.88,2.939
		c-1.526,2.32-2.259,5.076-2.087,7.85c-0.241,2.547,0.518,5.087,2.115,7.084c1.525,1.47,3.589,2.245,5.704,2.146
		c1.323,0.016,2.641-0.214,3.88-0.677c1.319-0.52,2.599-1.139,3.822-1.853l2.146,3.852c-1.524,0.979-3.151,1.786-4.853,2.41
		c-1.763,0.631-3.625,0.939-5.497,0.911C270.504,985.222,267.091,983.995,264.498,981.653z"/>
	<path fill="#78216B" d="M313.005,971.333H293.75c-0.175,2.512,0.661,4.987,2.321,6.88c1.59,1.48,3.71,2.256,5.879,2.146
		c1.485,0.021,2.966-0.199,4.382-0.646c1.441-0.509,2.831-1.158,4.145-1.94l2.088,3.852c-3.228,2.139-7.006,3.293-10.878,3.321
		c-3.536,0.179-7.003-1.022-9.672-3.352c-2.648-2.904-3.96-6.785-3.615-10.701c-0.038-2.604,0.474-5.189,1.499-7.584
		c3.247-6.636,11.259-9.382,17.896-6.134c0.071,0.035,0.144,0.07,0.215,0.106c1.68,0.943,3.041,2.366,3.91,4.086
		c0.902,1.826,1.356,3.844,1.321,5.881L313.005,971.333z M296.512,961.986c-1.345,1.502-2.196,3.379-2.439,5.38h13.759v-0.265
		c0.148-1.904-0.429-3.796-1.617-5.291c-1.19-1.222-2.854-1.865-4.558-1.766c-1.951-0.146-3.871,0.563-5.262,1.94L296.512,961.986
		L296.512,961.986z"/>
	<path fill="#78216B" d="M342.844,979.155h20.138v5.057h-25.87v-40.894h5.88L342.844,979.155z"/>
	<path fill="#78216B" d="M388.44,958.017c1.774,1.853,2.654,4.385,2.41,6.938v19.256h-4.909l-0.323-2.41
		c-2.907,2.114-6.43,3.22-10.023,3.146c-1.481,0.029-2.95-0.283-4.292-0.911c-1.207-0.564-2.228-1.463-2.94-2.587
		c-0.69-1.153-1.048-2.478-1.027-3.821c-0.085-2.229,0.817-4.381,2.469-5.88c1.871-1.652,4.124-2.814,6.556-3.381
		c2.975-0.743,6.021-1.146,9.084-1.206v-1.382c0.128-1.465-0.278-2.927-1.146-4.115c-1.03-0.978-2.439-1.449-3.852-1.294
		c-3.444,0.128-6.776,1.264-9.584,3.265l-2.41-3.764c3.699-2.673,8.137-4.131,12.699-4.175
		C383.786,955.53,386.385,956.358,388.44,958.017z M374.124,979.478c0.854,0.605,1.895,0.896,2.939,0.823
		c2.984-0.037,5.897-0.914,8.407-2.528v-6.556c-3.019,0.041-6.003,0.619-8.819,1.705c-2.264,0.97-3.41,2.321-3.41,4.086
		C373.132,977.924,373.459,978.838,374.124,979.478z"/>
	<path fill="#78216B" d="M420.955,957.606c1.668,1.252,2.942,2.956,3.675,4.909c0.818,2.261,1.218,4.65,1.176,7.056
		c0.116,3.108-0.703,6.182-2.352,8.819c-1.437,2.19-3.479,3.918-5.881,4.968c-2.354,0.99-4.883,1.5-7.438,1.5
		c-3.377-0.09-6.719-0.704-9.907-1.823v-42.333l5.409-0.616v18.08c2.842-1.584,6.037-2.423,9.29-2.44
		C417.087,955.688,419.2,956.348,420.955,957.606z M417.163,977.919c2.158-2.275,3.229-5.372,2.938-8.496
		c0.137-2.32-0.438-4.628-1.646-6.614c-1.189-1.573-3.09-2.445-5.058-2.322c-2.688,0.041-5.336,0.662-7.762,1.822v17.639
		c1.411,0.308,2.849,0.475,4.293,0.5C412.573,980.546,415.156,979.644,417.163,977.919L417.163,977.919z"/>
	<path fill="#78216B" d="M436.858,983.033c-1.956-1.269-3.49-3.09-4.409-5.231c-1.009-2.369-1.509-4.923-1.47-7.497
		c-0.106-2.884,0.552-5.744,1.91-8.29c1.175-2.068,2.962-3.723,5.115-4.732c2.307-0.961,4.794-1.413,7.291-1.322
		c2.602-0.091,5.174,0.573,7.408,1.91c1.951,1.262,3.485,3.071,4.409,5.203c0.998,2.36,1.488,4.904,1.44,7.467
		c0.118,2.9-0.531,5.78-1.882,8.351c-1.166,2.075-2.956,3.729-5.115,4.731c-2.303,1.022-4.802,1.524-7.32,1.471
		C441.629,985.151,439.06,984.435,436.858,983.033z M452.881,970.305c0.122-2.6-0.577-5.17-1.999-7.35
		c-1.377-1.841-3.586-2.866-5.88-2.733c-2.433-0.233-4.818,0.771-6.351,2.675c-2.646,4.606-2.646,10.271,0,14.876
		c1.427,1.88,3.701,2.917,6.057,2.764C450.156,980.534,452.881,977.124,452.881,970.305z"/>
	<path fill="#78216B" d="M481.396,955.958c0.634,0.095,1.263,0.222,1.882,0.383l-1,5.614c-1.252-0.47-2.572-0.729-3.909-0.765
		c-1.298-0.012-2.578,0.291-3.733,0.882c-1.359,0.815-2.484,1.972-3.263,3.353v18.813h-5.498v-27.722l5.438-0.559v3.969
		c0.987-1.232,2.231-2.235,3.646-2.939c1.371-0.679,2.881-1.031,4.41-1.029C480.044,955.906,480.721,955.906,481.396,955.958z"/>
	<path fill="#78216B" d="M507.031,958.017c1.785,1.848,2.677,4.381,2.44,6.938v19.256h-4.909l-0.323-2.41
		c-2.914,2.104-6.432,3.209-10.024,3.146c-1.481,0.032-2.951-0.278-4.292-0.911c-1.212-0.557-2.233-1.456-2.939-2.587
		c-0.716-1.145-1.083-2.473-1.059-3.821c-0.085-2.229,0.818-4.381,2.47-5.88c1.875-1.646,4.126-2.809,6.556-3.381
		c2.974-0.743,6.021-1.146,9.084-1.206v-1.382c0.12-1.46-0.274-2.916-1.116-4.115c-1.035-0.971-2.44-1.441-3.853-1.294
		c-3.443,0.128-6.775,1.264-9.583,3.265l-2.411-3.764c3.688-2.676,8.115-4.135,12.671-4.175
		C502.378,955.524,504.98,956.353,507.031,958.017z M492.715,979.478c0.855,0.604,1.895,0.895,2.938,0.823
		c2.976-0.041,5.878-0.917,8.379-2.528v-6.556c-3.018,0.04-6.004,0.616-8.818,1.705c-2.293,0.97-3.41,2.321-3.41,4.086
		C491.702,977.929,492.04,978.844,492.715,979.478z"/>
	<path fill="#78216B" d="M535.224,983.182c-2.133,1.149-4.516,1.757-6.938,1.764c-2.285,0.127-4.523-0.679-6.203-2.233
		c-1.626-1.839-2.442-4.256-2.265-6.702v-15.17h-5.556v-4.264h5.556v-6.262l5.439-0.882v7.144h9.318l-0.56,4.264h-8.819v14.286
		c0,3.528,1.295,5.292,3.91,5.292c0.743-0.001,1.483-0.09,2.205-0.265c0.797-0.205,1.574-0.479,2.322-0.823L535.224,983.182z"/>
	<path fill="#78216B" d="M544.368,983.033c-1.971-1.253-3.51-3.079-4.41-5.231c-1.008-2.369-1.51-4.923-1.471-7.497
		c-0.106-2.884,0.553-5.744,1.911-8.29c1.155-2.073,2.936-3.729,5.086-4.732c2.308-1.007,4.804-1.508,7.319-1.471
		c2.593-0.088,5.155,0.575,7.379,1.911c1.963,1.257,3.508,3.067,4.439,5.203c0.998,2.36,1.488,4.905,1.439,7.468
		c0.118,2.899-0.529,5.78-1.882,8.349c-1.166,2.075-2.955,3.731-5.115,4.733c-2.302,1.021-4.801,1.523-7.318,1.47
		C549.151,985.048,546.586,984.383,544.368,983.033z M560.388,970.305c0.123-2.6-0.576-5.17-1.999-7.35
		c-1.381-1.836-3.586-2.86-5.88-2.733c-2.423-0.234-4.801,0.771-6.32,2.675c-2.645,4.606-2.645,10.271,0,14.876
		c1.42,1.888,3.699,2.929,6.057,2.764C557.675,980.534,560.388,977.124,560.388,970.305z"/>
	<path fill="#78216B" d="M588.905,955.958c0.634,0.095,1.262,0.222,1.881,0.383l-0.998,5.614c-1.253-0.47-2.573-0.729-3.91-0.765
		c-1.298-0.012-2.579,0.291-3.733,0.882c-1.36,0.815-2.483,1.972-3.264,3.353v18.813h-5.438v-27.722l5.438-0.559v3.969
		c0.987-1.232,2.231-2.235,3.646-2.939c1.371-0.679,2.88-1.031,4.41-1.029C587.591,955.909,588.25,955.909,588.905,955.958z"/>
	<path fill="#78216B" d="M620.184,956.575v0.354l-10.523,29.222c-0.727,2.16-1.714,4.224-2.94,6.146
		c-0.892,1.393-2.113,2.544-3.557,3.352c-1.46,0.725-3.075,1.078-4.704,1.028c-1.873,0.006-3.732-0.313-5.497-0.94l1.47-4.146
		c1.163,0.354,2.37,0.544,3.587,0.559c0.844,0.023,1.686-0.126,2.469-0.439c0.792-0.392,1.472-0.979,1.971-1.705
		c0.818-1.168,1.473-2.444,1.939-3.793l0.735-1.999h-1.44l-10.584-27.281v-0.354h5.732l6.497,17.64l0.677,1.911l1.028,2.938
		l1.559-4.88l6.057-17.639L620.184,956.575z"/>
</g>
</svg>
